<svg width="62" height="62" viewBox="0 0 62 62" fill="none" xmlns="http://www.w3.org/2000/svg">
<path d="M59.3333 43.5938C61.0464 39.7454 62 35.4842 62 31C62 13.8792 48.1208 0 31 0C13.8792 0 0 13.8792 0 31C0 35.4842 0.953613 39.7454 2.66673 43.5938H59.3333Z" fill="#3E4A68"/>
<path d="M43.6717 14.3898C46.089 11.4152 47.0634 8.38885 45.8401 7.16556C44.857 6.1824 42.7091 6.61882 40.3597 8.08272C39.8185 4.86078 38.4909 2.58325 36.9386 2.58325C35.3863 2.58325 34.0586 4.86078 33.5174 8.08272C31.168 6.61882 29.0201 6.1824 28.037 7.16556C26.8137 8.38885 27.7881 11.4153 30.2054 14.3898C28.9614 15.026 28.2141 15.8414 28.2141 16.7306C28.2141 18.7636 32.1201 20.4115 36.9386 20.4115C41.757 20.4115 45.663 18.7636 45.663 16.7306C45.6629 15.8414 44.9157 15.0259 43.6717 14.3898Z" fill="#85AE11"/>
<path d="M28.1038 16.7404C30.1072 14.2752 30.9147 11.767 29.9009 10.7531C29.0861 9.93823 27.306 10.2999 25.3588 11.5132C24.9103 8.84293 23.8099 6.95532 22.5234 6.95532C21.2369 6.95532 20.1365 8.84293 19.6881 11.5132C17.7409 10.2999 15.9609 9.93823 15.146 10.7531C14.1322 11.7669 14.9398 14.2752 16.9432 16.7404C15.9122 17.2677 15.2929 17.9436 15.2929 18.6805C15.2929 20.3652 18.5301 21.7311 22.5235 21.7311C26.517 21.7311 29.7542 20.3652 29.7542 18.6805C29.754 17.9436 29.1348 17.2677 28.1038 16.7404Z" fill="#85AE11"/>
<path d="M49.7534 24.0953C52.9131 23.7687 55.2579 22.5662 55.2579 21.1324C55.2579 19.9801 53.7434 18.9772 51.5086 18.4582C53.0796 16.2528 53.6363 14.1401 52.7267 13.2303C51.817 12.3207 49.7042 12.8772 47.4988 14.4484C46.9798 12.2136 45.9769 10.6991 44.8246 10.6991C43.3908 10.6991 42.1882 13.0437 41.8616 16.2035C40.7598 15.8474 39.844 15.8874 39.3229 16.4084C38.1316 17.5997 39.4549 20.8546 42.2786 23.6784C45.1022 26.5022 48.3571 27.8255 49.5485 26.6341C50.0696 26.113 50.1096 25.1972 49.7534 24.0953Z" fill="#85AE11"/>
<path d="M39.4794 32.6981C43.8403 28.3371 45.0074 22.1288 42.757 17.4455C43.2575 15.697 43.4502 13.7987 42.435 12.7837C41.42 11.7687 39.5216 11.9613 37.7733 12.4617C33.09 10.2112 26.8815 11.3784 22.5207 15.7394C18.1598 20.1003 16.9926 26.3087 19.243 30.992C18.7426 32.7404 18.5499 34.6387 19.565 35.6537C20.58 36.6687 22.4784 36.4762 24.2268 35.9757C28.9101 38.2262 35.1185 37.059 39.4794 32.6981Z" fill="#B3E135"/>
<path d="M28.2694 26.9494C24.5244 23.2043 23.7748 17.5986 26.0196 13.1082C24.7752 13.7906 23.592 14.6682 22.5205 15.7396C18.1596 20.1006 16.9925 26.3089 19.2429 30.9922C18.7424 32.7407 18.5497 34.639 19.5649 35.654C20.5799 36.669 22.4783 36.4765 24.2266 35.976C28.9099 38.2265 35.1184 37.0593 39.4792 32.6983C40.5507 31.6269 41.4281 30.4437 42.1107 29.1992C37.6203 31.444 32.0146 30.6945 28.2694 26.9494Z" fill="#94D400"/>
<path d="M43.9869 16.4216C42.9837 16.4216 42.1705 17.2349 42.1705 18.238V25.5037C42.1705 26.5068 42.9837 27.3201 43.9869 27.3201C44.99 27.3201 45.8033 26.5068 45.8033 25.5037V18.238C45.8033 17.2349 44.99 16.4216 43.9869 16.4216Z" fill="#8C4F5C"/>
<path d="M43.9869 21.8708C42.9837 21.8708 42.1705 21.0576 42.1705 20.0544V25.5037C42.1705 26.5068 42.9837 27.3201 43.9869 27.3201C44.99 27.3201 45.8033 26.5068 45.8033 25.5037V20.0544C45.8033 21.0576 44.99 21.8708 43.9869 21.8708Z" fill="#7B3C47"/>
<path d="M54.6972 20.9285C51.1873 19.4747 46.9604 21.1816 43.9868 24.8511C41.0132 21.1816 36.7863 19.4747 33.2764 20.9285C28.6573 22.8418 27.0298 29.5037 29.6413 35.8083C32.2528 42.1129 38.1142 45.6727 42.7334 43.7594C43.1796 43.5746 43.5976 43.3449 43.9869 43.0761C44.3762 43.3449 44.7941 43.5746 45.2405 43.7594C49.8596 45.6727 55.721 42.1129 58.3325 35.8083C60.9438 29.5037 59.3163 22.8418 54.6972 20.9285Z" fill="#FF3345"/>
<path d="M35.9818 35.8083C33.4501 29.6962 34.9025 23.2484 39.2024 21.1171C37.2223 20.2772 35.1476 20.1536 33.2764 20.9286C28.6573 22.8419 27.0298 29.5037 29.6413 35.8083C32.2527 42.113 38.1142 45.6728 42.7333 43.7595C42.8737 43.7013 43.0103 43.6373 43.1451 43.5704C40.2376 42.3365 37.5349 39.5579 35.9818 35.8083Z" fill="#E32828"/>
<path d="M15.1483 4.80347C15.1483 4.80347 16.386 24.6958 27.0638 30.5076C35.6899 35.2026 47.1311 36.5201 51.2094 36.8531C52.1146 36.927 52.8604 37.5917 53.0389 38.4822C53.2052 39.3116 52.8419 40.1568 52.1255 40.6067C48.4787 42.8967 36.8497 49.028 23.8398 43.7138C8.09571 37.2825 4.10651 16.0837 12.4333 5.34766L15.1483 4.80347Z" fill="#FFCF11"/>
<path d="M26.7929 30.3562L26.7931 30.3556C16.3654 24.3578 15.1485 4.80347 15.1485 4.80347L12.4335 5.34766C4.7618 15.239 7.54466 34.011 20.3427 41.9334L22.7394 37.7909C20.6864 36.6715 19.9294 34.0998 21.0488 32.0468C22.1682 29.9938 24.7398 29.2368 26.7929 30.3562Z" fill="#FF9E00"/>
<path d="M13.6771 4.23828C13.6771 4.23828 10.69 26.1159 21.0235 34.7539C29.3713 41.7322 41.5124 45.6546 45.8701 46.9043C46.8373 47.1818 47.5027 48.0661 47.5027 49.0723C47.5027 50.0094 46.924 50.8485 46.0478 51.1811C41.5878 52.8745 27.6208 57.0026 14.6458 48.3972C-1.05605 37.9831 -0.773414 14.0872 10.6094 4.23828H13.6771Z" fill="#FFE854"/>
<path d="M14.4179 22.5398C12.3947 13.6325 13.677 4.23828 13.677 4.23828H10.6094C5.28803 8.84263 2.39328 16.5168 2.42283 24.4483C2.67689 21.5724 4.90489 19.1624 7.88598 18.7906C10.721 18.437 13.3478 20.038 14.4179 22.5398Z" fill="#FFCF11"/>
<path d="M15.2955 6.05469H8.02985C7.02671 6.05469 6.21344 5.24142 6.21344 4.23828C6.21344 3.23514 7.02671 2.42188 8.02985 2.42188H15.2955C16.2986 2.42188 17.1119 3.23514 17.1119 4.23828C17.1119 5.24142 16.2986 6.05469 15.2955 6.05469Z" fill="#8C4F5C"/>
<path d="M11.6627 4.23828C11.6627 3.23514 12.4759 2.42188 13.4791 2.42188H8.02984C7.0267 2.42188 6.21344 3.23514 6.21344 4.23828C6.21344 5.24142 7.0267 6.05469 8.02984 6.05469H13.4791C12.4759 6.05469 11.6627 5.24142 11.6627 4.23828Z" fill="#7B3C47"/>
<path d="M2.66675 43.5938C7.49427 54.4383 18.3635 62 31 62C43.6365 62 54.5058 54.4383 59.3333 43.5938H2.66675Z" fill="#CEDDF7"/>
<path d="M9.93237 43.5938H2.66675C7.49427 54.4383 18.3635 62 31 62C32.2312 62 33.4453 61.9272 34.6389 61.7877C23.5755 60.4983 14.2911 53.3853 9.93237 43.5938Z" fill="#AAC5EE"/>
<path d="M59.5781 46.0156H2.42188C1.08427 46.0156 0 44.9314 0 43.5938C0 42.2561 1.08427 41.1719 2.42188 41.1719H59.5781C60.9157 41.1719 62 42.2561 62 43.5938C62 44.9314 60.9157 46.0156 59.5781 46.0156Z" fill="#EBF0F3"/>
<path d="M12.9868 43.5938C12.9868 42.2561 14.0711 41.1719 15.4087 41.1719H2.42188C1.08427 41.1719 0 42.2561 0 43.5938C0 44.9314 1.08427 46.0156 2.42188 46.0156H15.4087C14.0711 46.0156 12.9868 44.9314 12.9868 43.5938Z" fill="#CEDDF7"/>
</svg>
