<svg width="62" height="62" viewBox="0 0 62 62" fill="none" xmlns="http://www.w3.org/2000/svg">
<path d="M62 31C62 48.121 48.121 62 31 62C13.879 62 0 48.121 0 31C0 13.879 13.879 0 31 0C48.121 0 62 13.879 62 31Z" fill="#F9DE6B"/>
<path d="M59.4561 43.3165C59.0762 44.1958 58.6548 45.0548 58.1955 45.8897L57.9258 45.4333C55.7093 41.6841 52.1654 39.0191 47.9465 37.9349L31.0005 33.5774L26.1316 32.3234H26.1302L18.7586 30.428C18.2904 30.3079 17.806 30.4101 17.4285 30.7114C17.0529 31.0122 16.8429 31.4616 16.858 31.9464L14.4338 32.016C14.4234 31.6352 14.4655 31.2629 14.5577 30.9063C14.7663 30.0898 15.2346 29.3614 15.9153 28.8169C16.8935 28.0364 18.1499 27.7668 19.3622 28.0795L31.0005 31.0718L35.8655 32.3234H35.8679L48.5515 35.5863C53.0584 36.7457 56.8947 39.4736 59.4561 43.3165Z" fill="#2F343A"/>
<path d="M47.5657 32.016L45.1415 31.9464C45.1552 31.4616 44.948 31.0122 44.571 30.7114C44.1926 30.4101 43.7092 30.3079 43.2409 30.428L35.8679 32.3234H35.8655L31.0005 33.5774L14.053 37.9349C9.83557 39.0191 6.29169 41.6841 4.07463 45.4333L3.80406 45.8897C3.3457 45.0548 2.92471 44.1958 2.54346 43.3151C5.10582 39.4736 8.94109 36.7457 13.4495 35.5863L26.1302 32.3234H26.1317L31.0005 31.0718L42.6373 28.0795C43.8497 27.7668 45.106 28.0364 46.0842 28.8169C46.7649 29.3614 47.2332 30.0898 47.4418 30.9063C47.534 31.2629 47.5761 31.6352 47.5657 32.016Z" fill="#2F343A"/>
<path d="M60.281 24.8838C60.281 24.8838 57.1808 34.629 56.1785 36.6346C54.5939 39.8048 53.5674 43.1619 42.7499 40.1771C41.8497 39.9297 41.0172 39.6175 40.249 39.2542C37.4388 37.9279 35.4743 35.919 34.1059 33.8268C33.761 33.3013 33.2998 32.8765 32.7663 32.5842C32.3169 32.3368 31.8188 32.183 31.297 32.1424C31.1987 32.1334 31.1003 32.1296 31.0009 32.1296C29.7436 32.1296 28.5838 32.7757 27.8955 33.8268C26.151 36.4918 23.443 39.021 19.2501 40.1771C15.9039 41.1 13.4963 41.4174 11.7177 41.319C7.74478 41.1028 6.91747 38.8247 5.82195 36.6346C4.81914 34.629 1.71942 24.8838 1.71942 24.8838C4.12711 24.2117 6.36734 23.4894 8.73293 22.9492C14.2417 21.6895 20.4298 21.417 31.0009 25.0711C31.3335 24.9562 31.6613 24.846 31.9853 24.7386C34.1494 24.0215 36.1242 23.4737 37.9463 23.0684C48.2407 20.7785 53.6171 23.0253 60.281 24.8838Z" fill="#505760"/>
<path d="M40.249 39.2542C37.4388 37.9279 35.4743 35.919 34.1059 33.8268C33.761 33.3013 33.2998 32.8765 32.7663 32.5842C32.3169 32.3368 31.8188 32.183 31.2971 32.1423L31.9848 24.7386C34.1489 24.0215 36.1243 23.4737 37.9463 23.0684L39.5206 24.4344C37.8163 28.6287 36.7836 33.1385 40.249 39.2542Z" fill="#3F444C"/>
<path d="M11.7177 41.319C7.74478 41.1029 6.91747 38.8248 5.82195 36.6347C4.81914 34.6291 1.71942 24.8839 1.71942 24.8839C4.12711 24.2112 6.36734 23.4894 8.73293 22.9492L10.1605 23.9099C10.16 23.9099 6.89003 34.1111 11.7177 41.319Z" fill="#3F444C"/>
<path d="M61.1462 24.4169C61.0194 24.1823 60.8028 24.0092 60.5455 23.9373C59.7971 23.7286 59.0535 23.5115 58.3346 23.3015C51.9005 21.4227 45.8241 19.6479 34.2213 23.0125C32.937 23.3848 31.8812 24.2405 31.2488 25.4211C31.1542 25.5976 31.0724 25.7783 31.0005 25.9618C30.9281 25.7783 30.8463 25.5976 30.7517 25.4211C30.1192 24.2405 29.0634 23.3852 27.7792 23.0125C16.1764 19.6484 10.1 21.4227 3.6664 23.3015C2.94694 23.5115 2.20382 23.7286 1.45502 23.9377C1.1977 24.0092 0.981054 24.1823 0.854284 24.4169C0.727514 24.652 0.701498 24.9282 0.782385 25.1822C0.910101 25.5834 3.91758 35.0235 4.94309 37.0736C5.01783 37.2235 5.09162 37.3739 5.16541 37.5244C5.92981 39.0839 6.79639 40.8516 8.9704 41.7423C9.90793 42.1264 11.0252 42.3194 12.3587 42.3194C14.2683 42.3194 16.6196 41.923 19.5122 41.125C22.7529 40.231 25.468 38.477 27.5819 35.9114C27.9859 35.4208 28.3653 34.9029 28.7205 34.3608C29.2347 33.5789 30.0861 33.112 31.0005 33.112C31.9153 33.112 32.7672 33.5793 33.2809 34.3622C33.6362 34.9043 34.015 35.4213 34.4185 35.9114C36.5325 38.477 39.2476 40.2315 42.4888 41.1255C45.3813 41.9235 47.7322 42.3194 49.6418 42.3194C50.9748 42.3194 52.093 42.1264 53.0301 41.7423C55.2041 40.8521 56.0707 39.0839 56.8351 37.5244C56.9089 37.3744 56.9827 37.2235 57.0574 37.0736C58.0824 35.0235 61.0909 25.5834 61.2181 25.1822C61.299 24.9282 61.2734 24.652 61.1462 24.4169ZM18.989 39.2301C14.58 40.4462 11.5465 40.6728 9.71589 39.9231C8.23296 39.3157 7.62938 38.0844 6.93073 36.6587C6.85505 36.504 6.77889 36.3489 6.70179 36.1942C6.00361 34.7988 4.10253 29.0866 2.96538 25.5526C3.38921 25.4306 3.80736 25.3085 4.21747 25.1884C10.6359 23.3143 16.1788 21.6956 27.2319 24.9008C28.0039 25.1245 28.6382 25.6392 29.019 26.3492C29.4007 27.062 29.4778 27.8785 29.2356 28.6486C28.0167 32.5226 25.2495 37.5031 18.989 39.2301ZM55.2992 36.1942C55.2221 36.3489 55.1459 36.504 55.0698 36.6587C54.3711 38.0844 53.7675 39.3157 52.2851 39.9231C50.454 40.6728 47.4205 40.4462 43.0115 39.2301C36.751 37.5031 33.9843 32.5226 32.7653 28.6486C32.5231 27.8785 32.5998 27.062 32.982 26.3497C33.3628 25.6392 33.9971 25.1245 34.769 24.9008C39.3342 23.5768 42.9585 23.0759 46.0937 23.0759C50.5491 23.0759 54.0163 24.0881 57.7835 25.1884C58.1936 25.3085 58.6117 25.4306 59.0356 25.5526C57.898 29.0871 55.9969 34.7983 55.2992 36.1942Z" fill="#2F343A"/>
<path d="M61.4054 25.925C61.4012 25.942 61.3969 25.9591 61.3922 25.9766C61.2001 26.7282 60.3988 27.1482 59.6713 26.8786C52.2056 24.1119 45.5137 21.5879 31.0005 27.9524C16.4858 21.5879 9.79393 24.1119 2.32822 26.8786C1.60071 27.1482 0.799407 26.7282 0.60736 25.9766C0.603103 25.9591 0.598845 25.942 0.594115 25.925C0.293746 24.7472 0.93138 23.5329 2.07136 23.111C9.64114 20.3102 16.3197 17.6532 31.0005 24.0916C45.6798 17.6532 52.3589 20.3102 59.9282 23.111C61.0686 23.5329 61.7063 24.7472 61.4054 25.925Z" fill="#F5697E"/>
</svg>
