<svg width="62" height="62" viewBox="0 0 62 62" fill="none" xmlns="http://www.w3.org/2000/svg">
<g clip-path="url(#clip0)">
<path d="M62 31C62 38.9501 59.0077 46.2025 54.0854 51.6891C48.7256 57.6676 41.0768 61.5506 32.517 61.9631C32.0146 61.9872 31.5085 62 31 62C30.4915 62 29.9854 61.9872 29.4816 61.9631C22.6124 61.632 16.3302 59.0658 11.3459 54.9737C10.1198 53.9676 8.97229 52.8683 7.91319 51.6876C2.99234 46.2015 0 38.9501 0 31C0 23.0499 2.99234 15.7985 7.91319 10.3124C9.39848 8.65489 11.0602 7.15919 12.8681 5.85318C17.9673 2.17023 24.2292 0 31 0C37.7708 0 44.0327 2.17023 49.1319 5.85318C50.9398 7.15919 52.6015 8.65489 54.0854 10.3109C59.0077 15.7975 62 23.0499 62 31Z" fill="#F9DE6B"/>
<path d="M54.0854 7.6284V51.689C48.7256 57.6676 41.0768 61.5506 32.517 61.9631V31.1277C32.517 30.289 31.8377 29.6093 30.9986 29.6093C30.1613 29.6093 29.4816 30.289 29.4816 31.1277V61.9631C20.9218 61.5506 13.273 57.6661 7.91321 51.6876V7.6284C7.91321 6.64783 8.70789 5.85315 9.68846 5.85315H52.3102C53.2907 5.85315 54.0854 6.64783 54.0854 7.6284Z" fill="#7ABECF"/>
<path d="M43.0791 12.9778C43.0791 19.0575 48.0075 23.985 54.0859 23.985V12.9778H43.0791Z" fill="#4896B0"/>
<path d="M11.3459 17.3197V54.9737C10.1199 53.9676 8.97231 52.8683 7.91321 51.6876V17.3197H11.3459Z" fill="#4896B0"/>
<path d="M18.9209 12.9778C18.9209 19.0575 13.992 23.985 7.91412 23.985V12.9778H18.9209Z" fill="#4896B0"/>
<path d="M9.68797 5.22021H52.3116C53.2917 5.22021 54.0859 6.01489 54.0859 6.995V12.9778H7.91367V6.995C7.91367 6.01489 8.70787 5.22021 9.68797 5.22021Z" fill="#F29367"/>
<path d="M9.68797 5.22021H18.9209V12.9778H7.91367V6.995C7.91367 6.01489 8.70787 5.22021 9.68797 5.22021Z" fill="#DD6131"/>
<path d="M30.9995 12.9778V23.6009C28.6254 23.6009 26.7007 21.6762 26.7007 19.3016V12.9778" fill="#4896B0"/>
<path d="M11.4244 5.22021H13.3222V12.9778H11.4244V5.22021Z" fill="#4896B0"/>
<path d="M48.6773 5.22021H50.5751V12.9778H48.6773V5.22021Z" fill="#7ABECF"/>
<path d="M38.102 5.22021H40.0002V12.9778H38.102V5.22021Z" fill="#7ABECF"/>
<path d="M21.9993 5.22021H23.8976V12.9778H21.9993V5.22021Z" fill="#7ABECF"/>
<path d="M27.3275 5.22021H34.6721V12.9778H27.3275V5.22021Z" fill="#DD6131"/>
<path d="M34.6721 13.9267H27.3279C26.8038 13.9267 26.3786 13.5019 26.3786 12.9778V5.22025C26.3786 4.69614 26.8038 4.27136 27.3279 4.27136H34.6721C35.1962 4.27136 35.621 4.69614 35.621 5.22025V12.9778C35.621 13.5019 35.1962 13.9267 34.6721 13.9267ZM28.2768 12.0289H33.7227V6.16913H28.2768V12.0289Z" fill="#E8C018"/>
<path d="M30.8761 9.99921H27.3279C26.8038 9.99921 26.3786 9.57443 26.3786 9.05032C26.3786 8.52621 26.8038 8.10144 27.3279 8.10144H30.8761C31.4002 8.10144 31.8254 8.52621 31.8254 9.05032C31.8254 9.57443 31.4002 9.99921 30.8761 9.99921Z" fill="#E8C018"/>
</g>
<defs>
<clipPath id="clip0">
<rect width="62" height="62" fill="white"/>
</clipPath>
</defs>
</svg>
