<svg width="62" height="62" viewBox="0 0 62 62" fill="none" xmlns="http://www.w3.org/2000/svg">
<path d="M62 31C62 48.0121 48.2344 62 31 62C13.8104 62 0 48.0542 0 31C0 13.8792 13.8792 0 31 0C48.1528 0 62 13.9085 62 31Z" fill="#87DCFA"/>
<path d="M33.7659 30.5227V61.8786C33.0502 61.9411 32.3268 61.9807 31.5971 61.9934C31.3994 61.9985 31.1991 61.9998 31 61.9998C30.0675 61.9998 29.1451 61.959 28.2341 61.8774V30.5227C28.2341 29.002 29.4793 27.7568 31 27.7568C31.1531 27.7568 31.3036 27.7696 31.4504 27.7939C32.0321 27.8896 32.5527 28.1689 32.9532 28.5696C33.4546 29.0708 33.7659 29.7624 33.7659 30.5227Z" fill="#D29650"/>
<path d="M33.7659 30.5228V61.8787C33.0502 61.9412 32.3268 61.9808 31.5971 61.9935C31.495 61.7065 31.4402 61.3989 31.4402 61.0787V28.0298C31.4402 27.9508 31.4441 27.8717 31.4504 27.7938C32.0321 27.8895 32.5527 28.1689 32.9533 28.5696C33.4546 29.0709 33.7659 29.7624 33.7659 30.5228Z" fill="#E6B464"/>
<path d="M51.989 7.99511L49.1862 15.4277L46.5377 22.4508H15.1613L9.98926 7.94158C9.3999 6.2843 10.2444 4.55956 11.7231 3.90759C12.1172 3.73285 12.5562 3.63452 13.0269 3.63452H48.9743C49.3417 3.63452 49.6913 3.6958 50.0128 3.80417C51.6726 4.3669 52.6549 6.23077 51.989 7.99511Z" fill="#F2C230"/>
<path d="M51.9891 7.99511L49.1862 15.4277H20.4175L16.2125 3.63452H48.9743C49.3417 3.63452 49.6913 3.6958 50.0128 3.80417C51.6726 4.3669 52.655 6.23077 51.9891 7.99511Z" fill="#FFEB50"/>
<path d="M45.8962 19.989H15.8032C14.5796 19.989 13.7152 21.1875 14.1023 22.3476L16.9855 30.9806C17.2292 31.7121 17.9134 32.2042 18.6849 32.2042H43.0618C43.8362 32.2042 44.5233 31.7077 44.7641 30.9718L47.0443 24.028L47.5986 22.3404C47.9798 21.1801 47.1169 19.989 45.8962 19.989Z" fill="#FF563C"/>
<path d="M47.0443 24.0278H20.1803C18.9566 24.0278 18.0937 25.2263 18.4808 26.3877L20.4226 32.2042H43.0618C43.8362 32.2042 44.5233 31.7077 44.7641 30.9718L47.0443 24.0278Z" fill="#FF7251"/>
<path d="M31.958 16.2194V3.63477H29.7413V16.2193C29.7413 16.8311 30.2378 17.3276 30.8496 17.3276C31.4615 17.3277 31.958 16.8312 31.958 16.2194Z" fill="#E3A600"/>
<path d="M25.2357 15.977L22.4678 3.63477H20.195L23.0737 16.4616C23.2081 17.0587 23.8007 17.434 24.3978 17.3009C24.9948 17.1666 25.3701 16.5741 25.2357 15.977Z" fill="#E3A600"/>
<path d="M18.3228 15.8471L13.9781 3.63477H13.0264C12.5566 3.63477 12.1176 3.73237 11.7231 3.90819L16.2332 16.5902C16.4386 17.1666 17.0725 17.4679 17.6489 17.2625C18.2267 17.0587 18.5282 16.4248 18.3228 15.8471Z" fill="#E3A600"/>
<path d="M41.5043 3.63477H39.2315L36.4638 15.977C36.3294 16.5741 36.7046 17.1666 37.3017 17.3012C37.8989 17.4341 38.4914 17.0587 38.6259 16.4619L41.5043 3.63477Z" fill="#E3A600"/>
<path d="M50.0132 3.80478C49.6911 3.69543 49.3422 3.63489 48.9743 3.63489H47.7211L43.3765 15.8471C43.1712 16.4248 43.4726 17.0589 44.0504 17.2628C44.6267 17.4682 45.2608 17.1668 45.4661 16.5905L50.0132 3.80478Z" fill="#E3A600"/>
<path d="M55.5628 21.2943L56.0793 24.6519C56.1293 24.9774 56.3864 25.2317 56.7122 25.2786L60.3366 25.7994C61.1921 25.9223 61.1921 27.1573 60.3366 27.2801L56.7122 27.8009C56.3862 27.8478 56.1293 28.1021 56.0793 28.4276L55.5628 31.7852C55.4326 32.6309 54.2143 32.6309 54.0841 31.7852L53.5677 28.4276C53.5177 28.1021 53.2606 27.8478 52.9347 27.8009L49.3104 27.2801C48.4548 27.1572 48.4548 25.9222 49.3104 25.7994L52.9347 25.2786C53.2607 25.2317 53.5177 24.9774 53.5677 24.6519L54.0841 21.2943C54.2144 20.4486 55.4328 20.4486 55.5628 21.2943Z" fill="#FFF5F5"/>
<path d="M6.54876 27.3423L6.95515 29.9847C6.99463 30.2409 7.19673 30.4411 7.45321 30.4779L10.3056 30.8877C10.9789 30.9844 10.9789 31.9562 10.3056 32.0531L7.45321 32.4629C7.19673 32.4997 6.99439 32.6998 6.95515 32.9561L6.54876 35.5985C6.44644 36.264 5.4875 36.264 5.38517 35.5985L4.97878 32.9561C4.9393 32.6998 4.7372 32.4997 4.48072 32.4629L1.62836 32.0531C0.955078 31.9563 0.955078 30.9845 1.62836 30.8877L4.48072 30.4779C4.7372 30.4411 4.93955 30.2409 4.97878 29.9847L5.38517 27.3423C5.4875 26.6768 6.44632 26.6768 6.54876 27.3423Z" fill="#FFF5F5"/>
<path d="M14.0149 39.1498L14.4213 41.7922C14.4608 42.0484 14.6629 42.2486 14.9194 42.2854L17.7717 42.6952C18.445 42.7919 18.445 43.7637 17.7717 43.8606L14.9194 44.2703C14.6629 44.3072 14.4605 44.5073 14.4213 44.7636L14.0149 47.4059C13.9126 48.0715 12.9537 48.0715 12.8513 47.4059L12.4449 44.7636C12.4055 44.5073 12.2034 44.3072 11.9469 44.2703L9.09451 43.8606C8.42123 43.7638 8.42123 42.792 9.09451 42.6952L11.9469 42.2854C12.2034 42.2486 12.4057 42.0484 12.4449 41.7922L12.8513 39.1498C12.9535 38.4843 13.9125 38.4843 14.0149 39.1498Z" fill="#FFF5F5"/>
</svg>
