<svg width="62" height="62" viewBox="0 0 62 62" fill="none" xmlns="http://www.w3.org/2000/svg">
<path d="M1.33203 31.7266C1.33203 15.3629 14.58 2.09367 30.9352 2.05866C47.3935 2.02366 60.659 15.2513 60.668 31.7096C60.6727 39.8286 57.415 47.186 52.1351 52.5453C51.2704 53.4232 49.8887 53.4999 48.9072 52.7553C43.9305 48.982 37.7269 46.7423 31 46.7423C24.259 46.7423 18.0434 48.9915 13.0616 52.7794C12.0923 53.5159 10.7334 53.4256 9.87813 52.559C4.59399 47.202 1.33203 39.8456 1.33203 31.7266Z" fill="#B0DDE9"/>
<path d="M32.2109 31.9182C32.2109 32.587 31.6689 33.1291 31 33.1291C30.3311 33.1291 29.7891 32.587 29.7891 31.9182C29.7891 31.2493 30.3311 30.7072 31 30.7072C31.6689 30.7072 32.2109 31.2493 32.2109 31.9182ZM31 26.1563C30.3311 26.1563 29.7891 26.6984 29.7891 27.3672C29.7891 28.0361 30.3311 28.5782 31 28.5782C31.6689 28.5782 32.2109 28.0361 32.2109 27.3672C32.2109 26.6984 31.6689 26.1563 31 26.1563ZM31 21.6053C30.3311 21.6053 29.7891 22.1474 29.7891 22.8163C29.7891 23.4851 30.3311 24.0272 31 24.0272C31.6689 24.0272 32.2109 23.4851 32.2109 22.8163C32.2109 22.1474 31.6689 21.6053 31 21.6053ZM24.487 31.062C24.0144 31.535 24.0144 32.3018 24.487 32.7744C24.96 33.2474 25.7267 33.2474 26.1998 32.7744C26.6723 32.3018 26.6723 31.535 26.1998 31.062C25.7267 30.589 24.96 30.589 24.487 31.062ZM21.269 27.844C20.796 28.3171 20.796 29.0838 21.269 29.5564C21.742 30.0294 22.5088 30.0294 22.9813 29.5564C23.4543 29.0838 23.4543 28.3171 22.9813 27.844C22.5088 27.371 21.742 27.371 21.269 27.844ZM18.051 24.6261C17.578 25.0986 17.578 25.8654 18.051 26.3384C18.524 26.8114 19.2908 26.8114 19.7634 26.3384C20.2364 25.8654 20.2364 25.0986 19.7634 24.6261C19.2908 24.153 18.524 24.153 18.051 24.6261ZM43.949 24.6261C43.476 24.153 42.7092 24.153 42.2366 24.6261C41.7636 25.0986 41.7636 25.8654 42.2366 26.3384C42.7092 26.8114 43.476 26.8114 43.949 26.3384C44.422 25.8654 44.422 25.0986 43.949 24.6261ZM39.0182 27.844C38.5457 28.3171 38.5457 29.0838 39.0182 29.5564C39.4912 30.0294 40.258 30.0294 40.731 29.5564C41.2036 29.0838 41.2036 28.3171 40.731 27.844C40.258 27.371 39.4912 27.371 39.0182 27.844ZM35.8002 31.062C35.3272 31.535 35.3272 32.3018 35.8002 32.7744C36.2733 33.2474 37.04 33.2474 37.5126 32.7744C37.9856 32.3018 37.9856 31.535 37.5126 31.062C37.04 30.589 36.2733 30.589 35.8002 31.062Z" fill="#95BCC9"/>
<path d="M52.1914 34.0273V52.487C46.8065 57.9826 39.302 61.3945 31 61.3945C22.698 61.3945 15.1935 57.9826 9.80859 52.487V37.2198L2.38924 41.6709C1.33771 42.3019 0 41.5446 0 40.3181C0 39.7897 0.264893 39.2963 0.705277 39.004L10.5858 32.5392C10.6089 32.5227 10.6827 32.4768 10.6827 32.4768C10.9576 32.3093 11.2797 32.2109 11.625 32.2109H50.375C51.3783 32.2109 52.1914 33.0241 52.1914 34.0273Z" fill="#DCA050"/>
<path d="M62 40.3181C62 41.5446 60.6623 42.3019 59.6108 41.6709L52.1914 37.2198V52.487C46.8065 57.9826 39.302 61.3945 31 61.3945C24.3748 61.3945 18.2582 59.2224 13.3203 55.5527V34.0273C13.3203 33.0241 14.1334 32.2109 15.1367 32.2109H50.375C50.7208 32.2109 51.0415 32.306 51.3168 32.4739C51.3168 32.4739 51.3882 32.5193 51.4119 32.5354L61.2947 39.004C61.7351 39.2963 62 39.7897 62 40.3181Z" fill="#EBAE56"/>
<path d="M22.627 55.2188V57.2253C22.627 57.8942 22.0849 58.4362 21.4161 58.4362H19.4095C18.7407 58.4362 18.1986 57.8942 18.1986 57.2253V55.2188C18.1986 54.5499 18.7407 54.0078 19.4095 54.0078H21.4161C22.0849 54.0078 22.627 54.5499 22.627 55.2188ZM15.3269 54.0078H13.3203C12.8378 54.0078 12.422 54.2912 12.2276 54.6998C13.5535 55.7845 14.9754 56.7556 16.4777 57.6009C16.5165 57.4826 16.5378 57.3563 16.5378 57.2253V55.2188C16.5378 54.5499 15.9957 54.0078 15.3269 54.0078ZM27.5058 54.0078H25.4987C24.8304 54.0078 24.2878 54.5499 24.2878 55.2188V57.2253C24.2878 57.8942 24.8304 58.4362 25.4987 58.4362H27.5058C28.1742 58.4362 28.7167 57.8942 28.7167 57.2253V55.2188C28.7167 54.5499 28.1742 54.0078 27.5058 54.0078Z" fill="#CE9047"/>
<path d="M11.4869 32.095C11.5323 32.0917 11.5786 32.0898 11.625 32.0898H50.375H50.3949C51.2931 32.0993 51.918 32.9933 51.6578 33.8533L47.6168 47.2076C47.385 47.9739 46.6788 48.498 45.8785 48.498H15.8988C15.0889 48.498 14.377 47.9621 14.1533 47.184L10.3105 33.8339C10.0749 33.0146 10.6364 32.1589 11.4869 32.095Z" fill="#FFF2B4"/>
<path d="M40.6875 10.4141C40.6875 15.7644 36.3504 20.1016 31 20.1016C25.6496 20.1016 21.3125 15.7644 21.3125 10.4141C21.3125 5.06371 25.6496 0.726562 31 0.726562C36.3504 0.726562 40.6875 5.06371 40.6875 10.4141Z" fill="#73D37A"/>
<path d="M38.8011 16.1566C37.0372 18.5492 34.2005 20.1016 31 20.1016C25.6496 20.1016 21.3125 15.7645 21.3125 10.4141C21.3125 7.21365 22.865 4.37694 25.2575 2.61304C24.0726 4.21989 23.3711 6.20564 23.3711 8.35553C23.3711 13.7059 27.7082 18.043 33.0586 18.043C35.2085 18.043 37.1942 17.3415 38.8011 16.1566Z" fill="#49CB5C"/>
<path d="M33.9148 4.35938C34.3878 4.35938 34.8542 4.46486 35.2809 4.66826L36.8995 5.43881C37.0684 5.51923 37.1758 5.68951 37.1758 5.87589V8.71875C37.1758 8.98648 36.9591 9.20312 36.6914 9.20312H34.6328V15.8633C34.6328 16.1977 34.3618 16.4688 34.0273 16.4688H27.9727C27.6382 16.4688 27.3672 16.1977 27.3672 15.8633V9.20312H25.3086C25.0409 9.20312 24.8242 8.98648 24.8242 8.71875V5.87636C24.8242 5.68951 24.9316 5.51923 25.1005 5.43881L26.7191 4.66826C27.1458 4.46486 27.6127 4.35938 28.0852 4.35938C28.2115 4.35938 28.334 4.40762 28.423 4.4975C29.0809 5.15973 29.9925 5.57031 31 5.57031C32.0075 5.57031 32.9191 5.15973 33.577 4.49702C33.666 4.40762 33.7885 4.35938 33.9148 4.35938Z" fill="#DDF4BA"/>
<path d="M19.375 16.4688C19.375 21.8191 15.0379 26.1562 9.6875 26.1562C4.33714 26.1562 0 21.8191 0 16.4688C0 11.1184 4.33714 6.78125 9.6875 6.78125C15.0379 6.78125 19.375 11.1184 19.375 16.4688Z" fill="#FD7A7A"/>
<path d="M17.4886 22.2113C15.7247 24.6039 12.888 26.1563 9.6875 26.1563C4.33714 26.1563 0 21.8192 0 16.4688C0 13.2683 1.55246 10.4316 3.94501 8.66772C2.76009 10.2746 2.05859 12.2603 2.05859 14.4102C2.05859 19.7606 6.39574 24.0977 11.7461 24.0977C13.896 24.0977 15.8817 23.3962 17.4886 22.2113Z" fill="#FD5757"/>
<path d="M15.1367 17.307C15.1367 19.6361 12.6969 22.5793 9.6875 22.5793C6.67813 22.5793 4.23828 19.6361 4.23828 17.307C4.23828 16.3292 4.66826 15.615 5.39009 15.1154C6.13321 14.6003 7.08682 14.5289 7.92928 14.8586C8.29871 15.0033 8.68611 15.105 9.08629 15.1575C9.11041 14.6793 9.24712 14.23 9.46896 13.8354C8.63408 14.1486 7.62607 13.9466 6.91843 13.239C6.17294 12.494 5.98799 11.414 6.37587 10.556C7.23441 10.1681 8.31384 10.3531 9.05885 11.0985C9.71446 11.7537 9.93631 12.6676 9.71635 13.4627C10.2707 12.7475 11.1373 12.2863 12.1098 12.2863C12.4443 12.2863 12.7153 12.5569 12.7153 12.8918C12.7153 13.2262 12.4443 13.4972 12.1098 13.4972C11.1614 13.4972 10.3814 14.2276 10.301 15.1557C10.6974 15.1031 11.0806 15.0015 11.4462 14.8586C12.2882 14.5289 13.2418 14.6003 13.9854 15.115C14.7067 15.615 15.1367 16.3292 15.1367 17.307Z" fill="#FDCBBB"/>
<path d="M62 16.4688C62 21.8191 57.6629 26.1562 52.3125 26.1562C46.9621 26.1562 42.625 21.8191 42.625 16.4688C42.625 11.1184 46.9621 6.78125 52.3125 6.78125C57.6629 6.78125 62 11.1184 62 16.4688Z" fill="#649EB0"/>
<path d="M60.1136 22.2113C58.3497 24.6039 55.513 26.1563 52.3125 26.1563C46.9621 26.1563 42.625 21.8192 42.625 16.4688C42.625 13.2683 44.1775 10.4316 46.57 8.66772C45.3851 10.2746 44.6836 12.2603 44.6836 14.4102C44.6836 19.7606 49.0207 24.0977 54.3711 24.0977C56.521 24.0977 58.5067 23.3962 60.1136 22.2113Z" fill="#458FA4"/>
<path d="M50.0723 14.6523C50.0723 15.1537 49.6655 15.5605 49.1641 15.5605C48.6627 15.5605 48.2559 15.1537 48.2559 14.6523C48.2559 14.1509 48.6627 13.7441 49.1641 13.7441C49.6655 13.7441 50.0723 14.1509 50.0723 14.6523ZM56.4297 13.7441C55.9283 13.7441 55.5215 14.1509 55.5215 14.6523C55.5215 15.1537 55.9283 15.5605 56.4297 15.5605C56.9311 15.5605 57.3379 15.1537 57.3379 14.6523C57.3379 14.1509 56.9311 13.7441 56.4297 13.7441ZM59.3359 19.4493C59.3359 20.4786 58.5015 21.3125 57.4727 21.3125C56.5848 21.3125 55.82 20.6857 55.6459 19.8149L55.5991 19.5793C55.3777 18.4748 54.408 17.6797 53.2812 17.6797H52.3125C51.1862 17.6797 50.2161 18.4748 49.9952 19.5793L49.9483 19.8149C49.7738 20.6857 49.0094 21.3125 48.121 21.3125C47.0922 21.3125 46.2583 20.4781 46.2583 19.4493C46.2583 18.2714 46.3515 17.0955 46.5378 15.9323L46.9082 13.615C47.0918 12.4684 48.0808 11.625 49.2421 11.625H56.3521C57.5129 11.625 58.502 12.4684 58.6855 13.615L59.0564 15.9323C59.2423 17.0955 59.3359 18.2714 59.3359 19.4493ZM50.9805 14.6523C50.9805 13.6491 50.1673 12.8359 49.1641 12.8359C48.1608 12.8359 47.3477 13.6491 47.3477 14.6523C47.3477 15.6556 48.1608 16.4688 49.1641 16.4688C50.1673 16.4688 50.9805 15.6556 50.9805 14.6523ZM52.5547 15.9844C52.5547 15.7166 52.338 15.5 52.0703 15.5C51.8026 15.5 51.5859 15.7166 51.5859 15.9844C51.5859 16.2521 51.8026 16.4688 52.0703 16.4688C52.338 16.4688 52.5547 16.2521 52.5547 15.9844ZM54.0078 15.9844C54.0078 15.7166 53.7912 15.5 53.5234 15.5C53.2557 15.5 53.0391 15.7166 53.0391 15.9844C53.0391 16.2521 53.2557 16.4688 53.5234 16.4688C53.7912 16.4688 54.0078 16.2521 54.0078 15.9844ZM58.2461 14.6523C58.2461 13.6491 57.433 12.8359 56.4297 12.8359C55.4264 12.8359 54.6133 13.6491 54.6133 14.6523C54.6133 15.6556 55.4264 16.4688 56.4297 16.4688C57.433 16.4688 58.2461 15.6556 58.2461 14.6523Z" fill="#B0DDE9"/>
</svg>
